<?xml version="1.0" encoding="UTF-8"?>
<svg id="Layer_1" data-name="Layer 1" xmlns="http://www.w3.org/2000/svg" viewBox="0 0 1080 1080">
  <defs>
    <style>
      .cls-1 {
        font-family: BigCaslon-Medium, 'Big Caslon';
        font-size: 29.06px;
        font-weight: 500;
        letter-spacing: .78em;
      }

      .cls-1, .cls-2 {
        fill: #141414;
      }
    </style>
  </defs>
  <g>
    <text class="cls-1" transform="translate(243.37 630.86)"><tspan x="0" y="0">Speak Confidence</tspan></text>
    <path class="cls-2" d="M810.04,562.79c0-1.86.34-3.59,1.02-5.21.68-1.61,1.62-3.04,2.84-4.26,1.21-1.22,2.63-2.18,4.24-2.88,1.61-.69,3.35-1.04,5.2-1.04s3.59.35,5.19,1.04c1.6.69,3.02,1.65,4.23,2.88,1.22,1.22,2.16,2.65,2.85,4.26.68,1.62,1.02,3.35,1.02,5.21s-.34,3.6-1.02,5.22-1.63,3.06-2.85,4.29c-1.21,1.24-2.62,2.2-4.23,2.89-1.61.69-3.34,1.04-5.19,1.04s-3.59-.35-5.2-1.04c-1.61-.69-3.02-1.66-4.24-2.89-1.22-1.24-2.16-2.67-2.84-4.29-.68-1.63-1.02-3.37-1.02-5.22ZM811.73,562.79c0,1.63.29,3.16.88,4.6.59,1.44,1.41,2.71,2.46,3.82,1.05,1.1,2.28,1.97,3.69,2.6,1.41.63,2.94.94,4.57.94s3.16-.31,4.56-.94c1.4-.63,2.63-1.49,3.68-2.6,1.05-1.11,1.87-2.38,2.45-3.82.59-1.44.88-2.97.88-4.6s-.29-3.14-.88-4.58c-.59-1.44-1.41-2.71-2.45-3.81-1.05-1.1-2.27-1.96-3.68-2.59-1.4-.63-2.92-.94-4.56-.94s-3.16.31-4.57.94c-1.41.63-2.64,1.49-3.69,2.59-1.05,1.1-1.87,2.37-2.46,3.81-.59,1.44-.88,2.96-.88,4.58ZM818.8,568.71v-11.61l-1.47-.31v-1.28h2.32c.54,0,1.01,0,1.4-.02s.78-.02,1.16-.04.85-.03,1.38-.04c1.81,0,3.2.34,4.14,1.01s1.42,1.6,1.42,2.78-.32,2.22-.95,3c-.64.78-1.47,1.29-2.49,1.53.56.27,1,.61,1.31,1.03.31.42.55.85.74,1.31.18.45.36.88.55,1.29.18.41.42.75.73,1.02.3.28.73.44,1.28.48v1.34h-2.03c-.6,0-1.06-.17-1.36-.5-.3-.33-.54-.76-.7-1.28-.17-.52-.34-1.07-.51-1.63-.17-.56-.42-1.09-.73-1.57-.31-.48-.78-.85-1.39-1.09l-2.72-.03v4.66l1.69.28v1.16h-5.22v-1.16l1.47-.34ZM820.86,562.48c.16.03.43.05.79.07.36.01.73.02,1.11.02h.91c.85,0,1.57-.29,2.17-.87.6-.58.9-1.28.9-2.1,0-1.02-.3-1.73-.91-2.14-.61-.41-1.49-.61-2.65-.61-.35,0-.7,0-1.07.02s-.78.06-1.25.14v5.47Z"/>
    <g>
      <path d="M247.11,548.52c.14.94.4,2.17.76,3.7.36,1.53.89,3.17,1.58,4.94.69,1.76,1.56,3.57,2.61,5.4,1.05,1.84,2.34,3.54,3.86,5.11,1.67,1.8,3.28,3.17,4.84,4.11,1.56.94,3.05,1.63,4.46,2.06,1.41.43,2.76.67,4.03.71,1.27.04,2.45.06,3.54.06,3.84,0,7-.65,9.46-1.94,2.47-1.29,4.41-2.88,5.82-4.76,1.41-1.88,2.41-3.86,2.99-5.93.58-2.08.87-3.9.87-5.46,0-2.9-.64-5.29-1.9-7.17-1.27-1.88-2.96-3.45-5.06-4.7-2.1-1.25-4.5-2.31-7.18-3.17-2.68-.86-5.44-1.74-8.27-2.64-2.83-.9-5.59-1.96-8.27-3.17-2.68-1.21-5.08-2.78-7.18-4.7-2.1-1.92-3.79-4.29-5.06-7.11-1.27-2.82-1.9-6.35-1.9-10.58,0-3.13.65-6.15,1.96-9.05,1.31-2.9,3.12-5.46,5.44-7.7,2.32-2.23,5.1-4.03,8.32-5.41,3.23-1.37,6.73-2.06,10.5-2.06,2.39,0,4.5.24,6.31.7,1.81.47,3.41.96,4.79,1.47,1.38.51,2.59,1,3.64,1.47,1.05.47,2.01.71,2.88.71,1.01,0,1.69-.18,2.01-.53s.67-1,1.03-1.94h1.74v22.32h-1.41c-.87-2.74-1.79-5.44-2.77-8.11-.98-2.66-2.23-5.07-3.75-7.23-1.52-2.15-3.45-3.9-5.77-5.23-2.32-1.33-5.26-2-8.81-2-2.9,0-5.46.43-7.67,1.29-2.21.86-4.08,2-5.6,3.41-1.52,1.41-2.68,2.98-3.48,4.7-.8,1.72-1.2,3.49-1.2,5.29,0,2.74.67,5.01,2.01,6.81,1.34,1.8,3.1,3.35,5.28,4.64,2.18,1.29,4.66,2.41,7.45,3.35,2.79.94,5.66,1.92,8.59,2.94,2.94,1.02,5.8,2.13,8.59,3.35,2.79,1.22,5.28,2.76,7.45,4.64s3.93,4.15,5.28,6.81c1.34,2.67,2.01,5.95,2.01,9.87s-.73,7.48-2.18,10.93c-1.45,3.45-3.5,6.46-6.15,9.05-2.65,2.58-5.8,4.64-9.46,6.17-3.66,1.53-7.74,2.29-12.24,2.29-2.25,0-4.48-.24-6.69-.71-2.21-.47-4.28-.96-6.2-1.47-1.92-.51-3.63-1-5.11-1.47-1.49-.47-2.59-.7-3.32-.7-1.02,0-1.74.18-2.18.53-.43.35-.83,1.08-1.2,2.17h-1.74v-26.08h1.63Z"/>
      <path d="M367.87,490.94v1.65h-10.01v52.76c0,3.68.16,7.27.49,10.75.33,3.49,1.09,6.6,2.28,9.34,1.2,2.74,2.97,4.96,5.33,6.64,2.36,1.68,5.53,2.53,9.52,2.53s7.2-.49,9.85-1.47c2.65-.98,4.84-2.27,6.58-3.88,1.74-1.6,3.08-3.41,4.03-5.41.94-2,1.63-3.99,2.07-5.99.43-2,.69-3.88.76-5.64.07-1.76.11-3.23.11-4.41v-55.22h-9.9v-1.65h21.76v1.65h-10.12v55.1c0,1.25-.04,2.84-.11,4.76-.07,1.92-.36,3.94-.87,6.05-.51,2.11-1.27,4.23-2.29,6.34-1.02,2.12-2.5,4.01-4.46,5.7-1.96,1.68-4.43,3.05-7.4,4.11-2.97,1.06-6.64,1.59-10.99,1.59-7.04,0-12.69-.84-16.97-2.53-4.28-1.68-7.56-3.88-9.84-6.58-2.29-2.7-3.79-5.78-4.52-9.22-.73-3.45-1.09-6.93-1.09-10.46v-54.87h-10.12v-1.65h35.9Z"/>
      <path d="M561.95,490.94v1.65h-8.59l22.19,41,20.02-41h-9.46v-1.65h20.78v1.65h-9.46l-21,43.12v37.24h10.12v1.65h-35.9v-1.65h10.01v-32.78l-25.24-47.59h-8.49v-1.65h35.03Z"/>
      <path d="M665.3,490.94v1.65h-10.01v80.37h17.95c2.39,0,4.8-.43,7.24-1.29,2.43-.86,4.71-2.29,6.85-4.29,2.14-2,4.06-4.58,5.76-7.76,1.7-3.17,3.03-7.03,3.97-11.57h1.41v26.55h-68.98v-1.65h10.01v-80.37h-10.01v-1.65h35.79Z"/>
      <path d="M791.5,490.94v20.09h-1.41c-.36-1.33-.98-3.04-1.85-5.11-.87-2.08-2.09-4.09-3.65-6.05-1.56-1.96-3.57-3.66-6.04-5.11-2.47-1.45-5.48-2.17-9.03-2.17h-17.3v36.3h6.09c2.68,0,4.95-.41,6.8-1.23,1.85-.82,3.39-2,4.62-3.52,1.23-1.53,2.25-3.37,3.05-5.52.8-2.15,1.45-4.56,1.96-7.23h1.41v36.54h-1.41c-.51-2.27-1.11-4.46-1.8-6.58-.69-2.12-1.62-3.98-2.77-5.58-1.16-1.61-2.59-2.88-4.3-3.82-1.71-.94-3.83-1.41-6.37-1.41h-7.29v42.41h17.84c3.34,0,6.35-.61,9.03-1.82,2.68-1.21,5.06-2.92,7.13-5.11s3.79-4.76,5.17-7.69c1.38-2.94,2.43-6.09,3.16-9.46h1.41v25.73h-69.52v-1.65h10.01v-80.37h-10.01v-1.65h65.06Z"/>
    </g>
  </g>
  <g>
    <path d="M460.27,452.82l2.39-1.71c1.07-.85,1.88-1.86,2.4-2.95,2.6-5.34,6.55-10.3,11.89-10.38-39.35.59-106.93,16.4-139.42,18.39,35.68-2.18,83.26,3.3,123.48,7.61.5-4.89.89-6.66,2.07-10.38l-2.81-.58Z"/>
    <path d="M598.15,456.2c-38.16,17.94-87.34,12.91-137.14,7.57-3.4,33.34,5.9,88.97,6.76,114.82-4.84-144.97,14.67-67.99,130.38-122.4Z"/>
  </g>
</svg>